<svg width="24" height="24" viewBox="0 0 24 24" fill="none" xmlns="http://www.w3.org/2000/svg">
<path d="M11.9999 2.25C10.3166 2.24963 8.66188 2.68508 7.19679 3.51396C5.7317 4.34285 4.50616 5.53692 3.63947 6.97997C2.77277 8.42301 2.29444 10.0659 2.25104 11.7486C2.20764 13.4314 2.60065 15.0967 3.39181 16.5825L2.32774 19.7747C2.2396 20.039 2.22681 20.3226 2.2908 20.5938C2.35479 20.8649 2.49304 21.1129 2.69004 21.3099C2.88704 21.5069 3.13502 21.6451 3.40618 21.7091C3.67733 21.7731 3.96095 21.7603 4.22524 21.6722L7.41743 20.6081C8.72503 21.3036 10.1739 21.6921 11.654 21.744C13.1342 21.7959 14.6067 21.51 15.9598 20.9079C17.3129 20.3057 18.5111 19.4033 19.4634 18.269C20.4156 17.1346 21.097 15.7983 21.4557 14.3613C21.8144 12.9244 21.841 11.4246 21.5335 9.97578C21.226 8.52701 20.5925 7.16732 19.6811 5.99992C18.7697 4.83253 17.6043 3.88811 16.2733 3.23836C14.9424 2.58861 13.481 2.25061 11.9999 2.25ZM11.9999 20.25C10.5496 20.251 9.12471 19.8691 7.86931 19.1428C7.77739 19.0895 7.6752 19.0563 7.56949 19.0455C7.46379 19.0347 7.357 19.0464 7.25618 19.08L3.74993 20.25L4.91899 16.7438C4.95269 16.643 4.9646 16.5362 4.95394 16.4305C4.94327 16.3248 4.91027 16.2226 4.85712 16.1306C3.94772 14.5584 3.5826 12.7299 3.8184 10.929C4.0542 9.12801 4.87774 7.4552 6.16126 6.17006C7.44479 4.88491 9.11655 4.05925 10.9172 3.82118C12.7179 3.5831 14.5468 3.94591 16.1202 4.85333C17.6936 5.76074 18.9236 7.16204 19.6193 8.83983C20.3151 10.5176 20.4377 12.3781 19.9681 14.1327C19.4986 15.8873 18.4632 17.4379 17.0224 18.5439C15.5817 19.65 13.8163 20.2497 11.9999 20.25Z" fill="black"/>
<path d="M16.4352 13.9862C16.3984 13.9636 15.0213 13.1004 14.773 12.9807C14.6716 12.932 14.5625 12.8833 14.4424 12.8702C14.2461 12.849 14.0708 12.9275 13.9218 13.103C13.7535 13.3001 13.2591 13.759 13.1069 13.8956C13.087 13.9137 13.0602 13.9349 13.0457 13.9333C13.0327 13.9319 12.8176 13.8162 12.7527 13.7797C11.2658 12.9429 10.2563 11.2087 10.1233 10.9203C10.1044 10.8789 10.1051 10.8611 10.1051 10.8611C10.1131 10.8411 10.1711 10.795 10.2011 10.7711C10.2886 10.7025 10.3854 10.61 10.4791 10.5205C10.5234 10.4781 10.5679 10.4357 10.6113 10.3958C10.7467 10.2708 10.8119 10.1694 10.8875 10.0519L10.927 9.9909C11.111 9.71012 11.0086 9.44525 10.9755 9.35972C10.9485 9.28822 10.493 7.7613 10.4444 7.6008C10.3276 7.21356 10.1389 7.0187 9.8508 6.98746C9.82406 6.98457 9.8508 6.98746 9.73817 6.97997C9.60103 6.97085 8.84708 6.98676 8.49621 7.15542C8.12413 7.33431 7.45952 7.96107 7.32785 9.17574C7.20935 10.269 7.80114 11.3774 8.06071 11.8028C8.06714 11.8135 8.07875 11.8351 8.09563 11.8661C9.07207 13.6574 10.3806 15.0483 11.7804 15.7827C13.128 16.4896 13.7876 16.626 14.1665 16.667C14.3258 16.6843 14.4547 16.6858 14.5683 16.6871L14.6404 16.6881C15.1313 16.6983 16.2591 16.2682 16.5744 15.6286C16.8227 15.1248 16.9353 14.5571 16.8305 14.3353C16.7585 14.1844 16.6159 14.097 16.4352 13.9862Z" fill="black"/>
</svg>
