<svg width="24" height="24" viewBox="0 0 24 24" fill="none" xmlns="http://www.w3.org/2000/svg">
<path d="M18.7499 6V15.75C18.7499 15.9489 18.6709 16.1397 18.5303 16.2803C18.3896 16.421 18.1988 16.5 17.9999 16.5C17.801 16.5 17.6103 16.421 17.4696 16.2803C17.3289 16.1397 17.2499 15.9489 17.2499 15.75V7.81031L6.53055 18.5306C6.38982 18.6714 6.19895 18.7504 5.99993 18.7504C5.80091 18.7504 5.61003 18.6714 5.4693 18.5306C5.32857 18.3899 5.24951 18.199 5.24951 18C5.24951 17.801 5.32857 17.6101 5.4693 17.4694L16.1896 6.75H8.24993C8.05102 6.75 7.86025 6.67098 7.7196 6.53033C7.57895 6.38968 7.49993 6.19891 7.49993 6C7.49993 5.80109 7.57895 5.61032 7.7196 5.46967C7.86025 5.32902 8.05102 5.25 8.24993 5.25H17.9999C18.1988 5.25 18.3896 5.32902 18.5303 5.46967C18.6709 5.61032 18.7499 5.80109 18.7499 6Z" fill="black"/>
</svg>
